<svg width="32" height="40" viewBox="0 0 32 40" fill="none" xmlns="http://www.w3.org/2000/svg">
<path d="M8.00324 9.1458C8.00324 6.85152 6.21372 4.99106 4.00162 4.99106C1.78952 4.99106 7.78095e-06 6.85152 7.74769e-06 9.1458C-0.00430437 11.4401 1.78952 13.3005 3.99731 13.3005C6.21372 13.3005 8.00324 11.4401 8.00324 9.1458M8.00324 29.1905C8.00324 26.8962 6.21372 25.0358 4.00162 25.0358C1.78952 25.0358 7.49039e-06 26.8962 7.45713e-06 29.1905C-0.00430466 31.4848 1.78521 33.3453 3.99731 33.3497L4.00162 33.3497C6.21372 33.3497 8.00324 31.4893 8.00324 29.1905M15.7607 3.43023L22.0261 6.93202C22.0261 6.93202 22.4013 7.30322 22.4013 7.57156L22.4013 11.6369L14.4024 11.6369L14.4024 2.78623C14.8034 2.78623 15.3252 3.12165 15.7607 3.43023M4.80367 1.66369L4.80367 3.31843C7.60653 3.72988 9.68927 6.21199 9.69358 9.1458C9.68495 12.0796 7.60221 14.5617 4.80367 14.9732L4.80367 23.3631C7.60221 23.7746 9.68495 26.2567 9.69358 29.1905C9.69358 32.1691 7.55909 34.6109 4.80367 35.0224L4.80367 38.3363C4.80367 39.2531 5.51948 39.9955 6.40346 40L30.4002 40C31.2842 40 32 39.2531 32 38.3363L32 14.9642C32 14.0474 31.2842 13.3005 30.4002 13.3005L25.6009 13.3005L25.6009 7.48211C25.6009 6.26118 24.8851 5.74687 24.0011 4.99106L17.6321 1.2746C17.6321 1.2746 15.9159 3.618e-07 14.3981 3.39798e-07L6.39914 2.23849e-07C5.51948 0.00447248 4.80367 0.74687 4.80367 1.66369" fill="url(#paint0_linear_410_6261)"/>
<defs>
<linearGradient id="paint0_linear_410_6261" x1="32" y1="20" x2="2.89911e-07" y2="20" gradientUnits="userSpaceOnUse">
<stop stop-color="#03EEFA"/>
<stop offset="1" stop-color="#237CE0"/>
</linearGradient>
</defs>
</svg>
