<svg width="1920" height="85" viewBox="0 0 1920 85" fill="none" xmlns="http://www.w3.org/2000/svg">
<g id="&#230;&#160;&#135;&#233;&#162;&#152;&#229;&#186;&#149;&#231;&#186;&#185;">
<g id="Rectangle 751" filter="url(#filter0_f_52_1664)">
<rect width="1918" height="65" fill="url(#paint0_linear_52_1664)" fill-opacity="0.4"/>
</g>
<g id="Group 384">
<g id="&#229;&#183;&#166;">
<g id="Mask group">
<mask id="mask0_52_1664" style="mask-type:alpha" maskUnits="userSpaceOnUse" x="16" y="58" width="619" height="9">
<g id="Group 5">
<path id="Vector 13" d="M16.5 60H383.5H391.5H452.5" stroke="#2FCDFF" stroke-opacity="0.5" stroke-width="2"/>
<path id="Vector 12" d="M634 65.5H460L452 59H438.5M452 65.5H268M257 65.5H74M66 65.5H45M38 65.5H16" stroke="#2FCDFF" stroke-width="2"/>
<path id="Vector 15" d="M44.5 65.5H68.5" stroke="#2FCDFF" stroke-width="2"/>
<path id="Vector 14" d="M466 60H481.5M487 60H502.5M508.5 60H523.5" stroke="#2FCDFF" stroke-opacity="0.3" stroke-width="2"/>
<rect id="Rectangle 31" x="612" y="62" width="23" height="2" fill="#2FCDFF" fill-opacity="0.9"/>
<rect id="Rectangle 32" x="438" y="58" width="14" height="2" fill="#2FCDFF" fill-opacity="0.9"/>
</g>
</mask>
<g mask="url(#mask0_52_1664)">
<rect id="Rectangle 698" x="8" y="51" width="637" height="23" fill="url(#paint1_linear_52_1664)"/>
</g>
</g>
<g id="Group 4">
<path id="Vector 9" d="M651 64.5L625 42.5V0" stroke="url(#paint2_linear_52_1664)" stroke-width="2"/>
<path id="Vector 11" d="M651 64.5H714L653.5 0H625V42.5L651 64.5Z" fill="url(#paint3_linear_52_1664)"/>
<path id="Vector 10" d="M651 64.5H714L704.5 54H667.5H638.639L651 64.5Z" fill="url(#paint4_linear_52_1664)"/>
</g>
</g>
<g id="&#229;&#143;&#179;">
<g id="Mask group_2">
<mask id="mask1_52_1664" style="mask-type:alpha" maskUnits="userSpaceOnUse" x="1285" y="58" width="619" height="9">
<g id="Group 6">
<path id="Vector 13_2" d="M1903.5 60H1536.5H1528.5H1467.5" stroke="#2FCDFF" stroke-opacity="0.5" stroke-width="2"/>
<path id="Vector 12_2" d="M1286 65.5H1460L1468 59H1481.5M1468 65.5H1652M1663 65.5H1846M1854 65.5H1875M1882 65.5H1904" stroke="#2FCDFF" stroke-opacity="0.9" stroke-width="2"/>
<path id="Vector 15_2" d="M1875.5 65.5H1851.5" stroke="#2FCDFF" stroke-opacity="0.9" stroke-width="2"/>
<path id="Vector 14_2" d="M1454 60H1438.5M1433 60H1417.5M1411.5 60H1396.5" stroke="#2FCDFF" stroke-opacity="0.3" stroke-width="2"/>
<rect id="Rectangle 31_2" width="23" height="2" transform="matrix(-1 0 0 1 1308 62)" fill="#2FCDFF" fill-opacity="0.9"/>
<rect id="Rectangle 32_2" width="14" height="2" transform="matrix(-1 0 0 1 1482 58)" fill="#2FCDFF" fill-opacity="0.9"/>
</g>
</mask>
<g mask="url(#mask1_52_1664)">
<rect id="Rectangle 698_2" width="637" height="23" transform="matrix(-1 0 0 1 1914 51)" fill="url(#paint5_linear_52_1664)"/>
</g>
</g>
<g id="Group 7">
<path id="Vector 9_2" d="M1269 64.5L1295 42.5V0" stroke="url(#paint6_linear_52_1664)" stroke-width="2"/>
<path id="Vector 11_2" d="M1269 64.5H1206L1266.5 0H1295V42.5L1269 64.5Z" fill="url(#paint7_linear_52_1664)"/>
<path id="Vector 10_2" d="M1269 64.5H1206L1215.5 54H1252.5H1281.36L1269 64.5Z" fill="url(#paint8_linear_52_1664)"/>
</g>
</g>
<g id="Group 3">
<path id="Vector 8" d="M722 72.5L654.5 0H1266.5L1198 72.5H987.5L982.5 67.5H937.5L932.5 72.5H722Z" fill="url(#paint9_linear_52_1664)"/>
<path id="Vector 11_3" d="M722.5 72.5L705 54H718L736.5 72.5H722.5Z" fill="url(#paint10_linear_52_1664)"/>
<path id="Vector 12_3" d="M1198 72.5L1215.5 54H1202.5L1184 72.5H1198Z" fill="url(#paint11_linear_52_1664)"/>
<path id="Vector 7" d="M654.5 0L722 72.5H932.5L937.5 67.5H982.5L987.5 72.5H1198L1266.5 0" stroke="url(#paint12_linear_52_1664)"/>
<g id="Rectangle 28" filter="url(#filter1_d_52_1664)">
<rect x="941" y="70" width="40" height="5" fill="url(#paint13_linear_52_1664)"/>
</g>
<rect id="Rectangle 29" x="763" y="70" width="55" height="5" fill="url(#paint14_linear_52_1664)"/>
<rect id="Rectangle 30" x="1097" y="70" width="55" height="5" fill="url(#paint15_linear_52_1664)"/>
</g>
</g>
</g>
<defs>
<filter id="filter0_f_52_1664" x="-10" y="-10" width="1938" height="85" filterUnits="userSpaceOnUse" color-interpolation-filters="sRGB">
<feFlood flood-opacity="0" result="BackgroundImageFix"/>
<feBlend mode="normal" in="SourceGraphic" in2="BackgroundImageFix" result="shape"/>
<feGaussianBlur stdDeviation="5" result="effect1_foregroundBlur_52_1664"/>
</filter>
<filter id="filter1_d_52_1664" x="931" y="60" width="60" height="25" filterUnits="userSpaceOnUse" color-interpolation-filters="sRGB">
<feFlood flood-opacity="0" result="BackgroundImageFix"/>
<feColorMatrix in="SourceAlpha" type="matrix" values="0 0 0 0 0 0 0 0 0 0 0 0 0 0 0 0 0 0 127 0" result="hardAlpha"/>
<feOffset/>
<feGaussianBlur stdDeviation="5"/>
<feComposite in2="hardAlpha" operator="out"/>
<feColorMatrix type="matrix" values="0 0 0 0 0.404167 0 0 0 0 0.857 0 0 0 0 1 0 0 0 1 0"/>
<feBlend mode="normal" in2="BackgroundImageFix" result="effect1_dropShadow_52_1664"/>
<feBlend mode="normal" in="SourceGraphic" in2="effect1_dropShadow_52_1664" result="shape"/>
</filter>
<linearGradient id="paint0_linear_52_1664" x1="959" y1="0" x2="959" y2="65" gradientUnits="userSpaceOnUse">
<stop stop-color="#0896FC" stop-opacity="0"/>
<stop offset="1" stop-color="#0896FC"/>
</linearGradient>
<linearGradient id="paint1_linear_52_1664" x1="645" y1="63.0482" x2="8" y2="63.0481" gradientUnits="userSpaceOnUse">
<stop stop-color="#50F6FF"/>
<stop offset="1" stop-color="#3687FF"/>
</linearGradient>
<linearGradient id="paint2_linear_52_1664" x1="624.872" y1="-1.33441" x2="651" y2="65" gradientUnits="userSpaceOnUse">
<stop stop-color="#031D53" stop-opacity="0.1"/>
<stop offset="0.594073" stop-color="#71CAEA"/>
<stop offset="1" stop-color="#031A53" stop-opacity="0.1"/>
</linearGradient>
<linearGradient id="paint3_linear_52_1664" x1="669.5" y1="0" x2="669.5" y2="64.5" gradientUnits="userSpaceOnUse">
<stop offset="0.234375" stop-color="#0075FF" stop-opacity="0"/>
<stop offset="1" stop-color="#0085FF"/>
</linearGradient>
<linearGradient id="paint4_linear_52_1664" x1="676.319" y1="54" x2="676.319" y2="64.5" gradientUnits="userSpaceOnUse">
<stop stop-color="#03EEFA"/>
<stop offset="1" stop-color="#237CE0"/>
</linearGradient>
<linearGradient id="paint5_linear_52_1664" x1="637" y1="12.0482" x2="-3.95023e-07" y2="12.0481" gradientUnits="userSpaceOnUse">
<stop stop-color="#50F6FF"/>
<stop offset="1" stop-color="#3687FF"/>
</linearGradient>
<linearGradient id="paint6_linear_52_1664" x1="1295.13" y1="-1.33441" x2="1269" y2="65" gradientUnits="userSpaceOnUse">
<stop stop-color="#031D53" stop-opacity="0.1"/>
<stop offset="0.594073" stop-color="#71D4FF"/>
<stop offset="1" stop-color="#031A53" stop-opacity="0.1"/>
</linearGradient>
<linearGradient id="paint7_linear_52_1664" x1="1250.5" y1="0" x2="1250.5" y2="64.5" gradientUnits="userSpaceOnUse">
<stop offset="0.171875" stop-color="#0075FF" stop-opacity="0"/>
<stop offset="1" stop-color="#0085FF"/>
</linearGradient>
<linearGradient id="paint8_linear_52_1664" x1="1243.68" y1="54" x2="1243.68" y2="64.5" gradientUnits="userSpaceOnUse">
<stop stop-color="#03EEFA"/>
<stop offset="1" stop-color="#237CE0"/>
</linearGradient>
<linearGradient id="paint9_linear_52_1664" x1="960.5" y1="0" x2="960.5" y2="72.5" gradientUnits="userSpaceOnUse">
<stop stop-color="#00408B" stop-opacity="0"/>
<stop offset="1" stop-color="#0075FF"/>
</linearGradient>
<linearGradient id="paint10_linear_52_1664" x1="720.75" y1="54" x2="720.75" y2="72.5" gradientUnits="userSpaceOnUse">
<stop stop-color="#0383FA" stop-opacity="0"/>
<stop offset="1" stop-color="#0071F1"/>
</linearGradient>
<linearGradient id="paint11_linear_52_1664" x1="1199.75" y1="54" x2="1199.75" y2="72.5" gradientUnits="userSpaceOnUse">
<stop stop-color="#0383FA" stop-opacity="0"/>
<stop offset="1" stop-color="#0071F1"/>
</linearGradient>
<linearGradient id="paint12_linear_52_1664" x1="651.5" y1="-1.49996" x2="1270" y2="-1.49996" gradientUnits="userSpaceOnUse">
<stop stop-color="#47FFFF" stop-opacity="0"/>
<stop offset="0.0989583" stop-color="#47FFFF"/>
<stop offset="0.901042" stop-color="#47FFFF"/>
<stop offset="1" stop-color="#47FFFF" stop-opacity="0"/>
</linearGradient>
<linearGradient id="paint13_linear_52_1664" x1="961" y1="70" x2="961" y2="75" gradientUnits="userSpaceOnUse">
<stop stop-color="#03EEFA"/>
<stop offset="1" stop-color="#237CE0"/>
</linearGradient>
<linearGradient id="paint14_linear_52_1664" x1="790.5" y1="70" x2="790.5" y2="75" gradientUnits="userSpaceOnUse">
<stop stop-color="#03EEFA"/>
<stop offset="1" stop-color="#237CE0"/>
</linearGradient>
<linearGradient id="paint15_linear_52_1664" x1="1124.5" y1="70" x2="1124.5" y2="75" gradientUnits="userSpaceOnUse">
<stop stop-color="#03EEFA"/>
<stop offset="1" stop-color="#237CE0"/>
</linearGradient>
</defs>
</svg>
